<svg width="422" height="279" xmlns="http://www.w3.org/2000/svg" xmlns:xlink="http://www.w3.org/1999/xlink" overflow="hidden"><defs><clipPath id="clip0"><path d="M47 410 469 410 469 689 47 689Z" fill-rule="evenodd" clip-rule="evenodd"/></clipPath></defs><g clip-path="url(#clip0)" transform="translate(-47 -410)"><rect x="390.5" y="455.5" width="77" height="77" stroke="#000000" stroke-miterlimit="8" fill="none"/><rect x="397.5" y="465.5" width="11" height="11" stroke="#000000" stroke-miterlimit="8" fill="#E7E6E6"/><rect x="414.5" y="465.5" width="11" height="11" stroke="#000000" stroke-miterlimit="8" fill="#E7E6E6"/><rect x="449.5" y="465.5" width="11" height="11" stroke="#000000" stroke-miterlimit="8" fill="#E7E6E6"/><rect x="397.5" y="481.5" width="11" height="11" stroke="#000000" stroke-miterlimit="8" fill="#E7E6E6"/><rect x="414.5" y="481.5" width="11" height="11" stroke="#000000" stroke-miterlimit="8" fill="#E7E6E6"/><rect x="449.5" y="481.5" width="11" height="11" stroke="#000000" stroke-miterlimit="8" fill="#E7E6E6"/><rect x="397.5" y="514.5" width="11" height="11" stroke="#000000" stroke-miterlimit="8" fill="#E7E6E6"/><rect x="414.5" y="514.5" width="11" height="11" stroke="#000000" stroke-miterlimit="8" fill="#E7E6E6"/><rect x="449.5" y="514.5" width="11" height="11" stroke="#000000" stroke-miterlimit="8" fill="#E7E6E6"/><text font-family="Calibri,Calibri_MSFontService,sans-serif" font-weight="400" font-size="14" transform="translate(431.744 472)">…<tspan x="0" y="16">…</tspan></text><text font-family="Calibri,Calibri_MSFontService,sans-serif" font-weight="400" font-size="14" transform="matrix(6.12323e-17 1 -1 6.12323e-17 402.221 498)">…<tspan x="-1" y="-16.711">…</tspan></text><rect x="390.5" y="532.5" width="77" height="27" stroke="#000000" stroke-miterlimit="8" fill="#7F7F7F"/><text font-family="Calibri,Calibri_MSFontService,sans-serif" font-weight="400" font-size="16" transform="translate(408.778 551)">Cache</text><rect x="190.5" y="454.5" width="53" height="180" stroke="#000000" stroke-miterlimit="8" fill="#7F7F7F"/><text font-family="Calibri,Calibri_MSFontService,sans-serif" font-weight="400" font-size="16" transform="matrix(-1.83697e-16 -1 1 -1.83697e-16 221.781 618)">Buffet over Scratchpad</text><rect x="63.5001" y="454.5" width="98" height="34" stroke="#000000" stroke-miterlimit="8" fill="#F2F2F2"/><text font-family="Calibri,Calibri_MSFontService,sans-serif" font-weight="400" font-size="16" transform="translate(90.6987 477)">Tensor</text><rect x="64.5001" y="569.5" width="97" height="59" stroke="#000000" stroke-miterlimit="8" fill="#F2F2F2"/><text font-family="Calibri,Calibri_MSFontService,sans-serif" font-weight="400" font-size="16" transform="translate(89.9123 585)">Special <tspan x="-5.58667" y="19">Function </tspan><tspan x="8.91333" y="38">Unit</tspan></text><rect x="267.5" y="570.5" width="97" height="59" stroke="#000000" stroke-miterlimit="8" fill="#F2F2F2"/><text font-family="Calibri,Calibri_MSFontService,sans-serif" font-weight="400" font-size="16" transform="translate(300.447 585)">Data <tspan x="-18.3466" y="19">Alignment</tspan><tspan x="1.24667" y="38">Unit</tspan></text><rect x="266.5" y="454.5" width="97" height="34" stroke="#000000" stroke-miterlimit="8" fill="#F2F2F2"/><text font-family="Calibri,Calibri_MSFontService,sans-serif" font-weight="400" font-size="16" transform="translate(290.336 477)">Control</text><rect x="49.5001" y="650.5" width="97" height="34" stroke="#000000" stroke-miterlimit="8" fill="#F2F2F2"/><text font-family="Calibri,Calibri_MSFontService,sans-serif" font-weight="400" font-size="16" transform="translate(60.4677 673)">Scoreboard</text><rect x="266.5" y="508.5" width="98" height="33" stroke="#000000" stroke-miterlimit="8" fill="#F2F2F2"/><text font-family="Calibri,Calibri_MSFontService,sans-serif" font-weight="400" font-size="16" transform="translate(298.808 530)">DMA</text><rect x="278.5" y="650.5" width="98" height="34" stroke="#000000" stroke-miterlimit="8" fill="#F2F2F2"/><text font-family="Calibri,Calibri_MSFontService,sans-serif" font-weight="400" font-size="16" transform="translate(304.956 672)">Router</text><path d="M4-0.499981 18.4218-0.499914 18.4218 0.500086 4 0.500019ZM5.33331 4.00002 0 0 5.33335-3.99997ZM17.0885-3.99992 22.4218 0.000104987 17.0885 4.00008Z" transform="matrix(-1 -8.74228e-08 -8.74228e-08 1 265.922 471.5)"/><path d="M1.83258e-06-0.5 24.6446-0.49991 24.6446 0.50009-1.83258e-06 0.5ZM23.3113-3.99991 28.6446 0.000104987 23.3113 4.00009Z" transform="matrix(-1 -8.74228e-08 -8.74228e-08 1 190.145 471.5)"/><path d="M4-0.499982 19.1853-0.499913 19.1853 0.500087 4 0.500018ZM5.33331 4.00002 0 0 5.33335-3.99998ZM17.852-3.99992 23.1853 0.000104987 17.8519 4.00008Z" transform="matrix(-1 -8.74228e-08 -8.74228e-08 1 267.685 525.5)"/><path d="M4-0.499982 19.1852-0.499913 19.1852 0.500087 4 0.500018ZM5.33331 4.00002 0 0 5.33335-3.99998ZM17.8519-3.99992 23.1852 0.000104987 17.8518 4.00008Z" transform="matrix(-1 -8.74228e-08 -8.74228e-08 1 267.685 600.5)"/><path d="M161.5 599 185.725 599 185.725 600 161.5 600ZM184.391 595.5 189.725 599.5 184.391 603.5Z"/><path d="M125 542.5 125.017 565.474 124.017 565.474 124 542.5ZM128.516 564.138 124.52 569.474 120.516 564.144Z"/><path d="M102 488.5 102.019 564.977 101.019 564.978 101 488.5ZM105.519 563.643 101.52 568.977 97.5187 563.645Z"/><rect x="64.5001" y="508.5" width="97" height="34" stroke="#000000" stroke-miterlimit="8" fill="#F2F2F2"/><text font-family="Calibri,Calibri_MSFontService,sans-serif" font-weight="400" font-size="16" transform="translate(94.9831 530)">SIMD</text><path d="M170.398 472.5 170.398 526.151 165.5 526.151 165.5 525.151 169.898 525.151 169.398 525.651 169.398 472.5ZM166.833 529.651 161.5 525.651 166.833 521.651Z"/><path d="M56.5001 449.5C87.1462 451.748 100.892 448.654 119.94 449.5 138.988 450.346 151.517 447.987 178.5 449.5 177.508 473.427 180.206 488.284 178.5 514.867 176.794 541.45 180.21 551.633 178.5 576.533 176.79 601.433 180.175 609.385 178.5 634.5 159.263 634.883 141.644 633.633 118.72 634.5 95.7959 635.367 79.6187 633.525 56.5001 634.5 57.6328 614.184 55.4653 587.739 56.5001 574.683 57.5348 561.628 58.2037 536.582 56.5001 513.017 54.7964 489.452 58.798 465.959 56.5001 449.5Z" stroke="#000000" stroke-width="3" stroke-miterlimit="8" stroke-dasharray="9 3" fill="none" fill-rule="evenodd"/><path d="M257.5 565.5C279.434 563.698 290.982 563.141 317.3 565.5 343.618 567.859 353.063 563.455 372.5 565.5 369.146 600.047 371.907 606.85 372.5 635.5 357.018 632.619 328.37 636.68 315 635.5 301.63 634.32 280.766 637.456 257.5 635.5 259.164 602.199 254.108 585.175 257.5 565.5Z" stroke="#000000" stroke-width="3" stroke-miterlimit="8" stroke-dasharray="9 3" fill="none" fill-rule="evenodd"/><path d="M376.5 440.5 397.912 514.739" stroke="#AFABAB" stroke-miterlimit="8" stroke-dasharray="3 1" fill="none" fill-rule="evenodd"/><path d="M0 0 20.6723 159.39" stroke="#AFABAB" stroke-miterlimit="8" stroke-dasharray="3 1" fill="none" fill-rule="evenodd" transform="matrix(-1 -8.74228e-08 -8.74228e-08 1 398.172 525.5)"/><rect x="49" y="440" width="327" height="244" stroke="#000000" stroke-width="2" stroke-miterlimit="8" fill="none"/><text font-family="Calibri,Calibri_MSFontService,sans-serif" font-weight="400" font-size="16" transform="translate(415.56 448)">Ad<tspan x="17.6667" y="0">a</tspan><tspan x="-227.83" y="-17">Ada Node</tspan><tspan x="-250.451" y="227">Ada  </tspan><tspan x="-217.784" y="227">Datapaths</tspan></text><path d="M0.0243613-0.499406 2.64358-0.371639 3.11637-0.238288 2.84491 0.724161 2.42677 0.606225 2.53814 0.624406-0.0243613 0.499406ZM4.07882 0.033172 5.17027 0.341018 6.941 1.12801 6.53487 2.04182 4.79693 1.26941 4.86427 1.29372 3.80736 0.995622ZM7.89441 1.64511 9.49935 2.73233 10.3339 3.50508 9.65452 4.23884 8.8478 3.49188 8.90708 3.53896 7.33356 2.47303ZM11.0677 4.18449 11.249 4.35235 12.5595 6.12162 12.866 6.81123 11.9522 7.21737 11.6681 6.57807 11.7232 6.67261 10.4732 4.98511 10.5353 5.05438 10.3883 4.91825ZM13.2722 7.72505 13.3559 7.91339 13.6826 9.67774 13.8058 10.827 12.8114 10.9335 12.6903 9.80327 12.6959 9.84104 12.3834 8.15354 12.4181 8.26557 12.3584 8.13118ZM13.9869 11.6325 14.579 12.9155 14.517 12.8146 15.5021 14.0589 14.718 14.6796 13.696 13.3886 13.0789 12.0516ZM16.1514 14.644 17.307 15.5428 17.2236 15.4903 18.5975 16.1772 18.1503 17.0716 16.7321 16.3626 15.5374 15.4334ZM19.4919 16.6244 21.4736 17.6153 21.3866 17.5815 22.1411 17.7958 21.868 18.7577 21.0683 18.5307 19.0447 17.5189ZM23.1031 18.0689 25.718 18.8114 25.4448 19.7734 22.8299 19.0309ZM22.1451 13.0744 26.3118 19.4998 19.3901 22.7767C19.1405 22.8949 18.8424 22.7883 18.7243 22.5387 18.6061 22.2892 18.7126 21.991 18.9622 21.8729L25.3675 18.8405 25.1619 19.5644 21.3061 13.6184C21.1558 13.3867 21.2219 13.0771 21.4536 12.9269 21.6852 12.7766 21.9949 12.8427 22.1451 13.0744Z" transform="matrix(-4.37114e-08 1 1 4.37114e-08 160.5 633.5)"/><path d="M266.585 635.538 266.393 638.029 266.22 638.612 265.261 638.327 265.419 637.795 265.4 637.899 265.588 635.462ZM265.935 639.571 265.676 640.44 264.651 642.378 263.767 641.91 264.769 640.016 264.732 640.108 264.976 639.286ZM264.019 643.264 263.014 644.532 261.919 645.51 261.253 644.764 262.316 643.815 262.257 643.877 263.236 642.643ZM261.107 646.211 259.316 647.385 258.416 647.733 258.055 646.8 258.906 646.471 258.812 646.519 260.559 645.375ZM257.484 648.094 257.274 648.175 255.291 648.44 254.301 648.378 254.364 647.38 255.305 647.438 255.208 647.442 257.083 647.192 256.968 647.221 257.123 647.161ZM253.303 648.315 253.243 648.312 253.422 648.29 251.609 648.853 251.739 648.791 250.872 649.369 250.318 648.537 251.244 647.919 253.213 647.308 253.366 647.317ZM250.14 649.841 248.711 651.456 248.76 651.39 248.313 652.105 247.465 651.575 247.934 650.825 249.391 649.179ZM247.783 652.953 247.51 653.39 247.538 653.339 246.477 655.586 245.573 655.159 246.647 652.885 246.935 652.423ZM246.204 656.476 245.309 659.339 244.354 659.041 245.249 656.177ZM250.994 656.378 244.461 660.374 241.367 653.369C241.256 653.117 241.37 652.821 241.622 652.71 241.875 652.598 242.17 652.712 242.282 652.965L245.145 659.448 244.427 659.223 250.472 655.524C250.708 655.38 251.015 655.454 251.159 655.69 251.304 655.926 251.229 656.233 250.994 656.378Z"/></g></svg>