<svg width="418" height="52" xmlns="http://www.w3.org/2000/svg" xmlns:xlink="http://www.w3.org/1999/xlink" overflow="hidden"><defs><clipPath id="clip0"><path d="M159 488 577 488 577 540 159 540Z" fill-rule="evenodd" clip-rule="evenodd"/></clipPath></defs><g clip-path="url(#clip0)" transform="translate(-159 -488)"><path d="M160.5 506.333C160.5 503.664 162.664 501.5 165.333 501.5L230.667 501.5C233.336 501.5 235.5 503.664 235.5 506.333L235.5 525.667C235.5 528.336 233.336 530.5 230.667 530.5L165.333 530.5C162.664 530.5 160.5 528.336 160.5 525.667Z" stroke="#000000" stroke-miterlimit="8" fill="#FFFFFF" fill-rule="evenodd"/><text font-family="Calibri,Calibri_MSFontService,sans-serif" font-weight="400" font-size="16" transform="translate(180.436 521)">input</text><rect x="256.5" y="501.5" width="76" height="30" stroke="#000000" stroke-miterlimit="8" fill="#FFFFFF"/><text font-family="Calibri,Calibri_MSFontService,sans-serif" font-weight="400" font-size="16" transform="translate(278.835 521)">conv</text><rect x="353.5" y="501.5" width="77" height="29" stroke="#000000" stroke-miterlimit="8" fill="#FFFFFF"/><text font-family="Calibri,Calibri_MSFontService,sans-serif" font-weight="400" font-size="16" transform="translate(364.045 521)">avg<tspan x="21.8466" y="0">-</tspan><tspan x="26.68" y="0">pool</tspan></text><rect x="498.5" y="501.5" width="77" height="29" stroke="#000000" stroke-miterlimit="8" fill="#FFFFFF"/><text font-family="Calibri,Calibri_MSFontService,sans-serif" font-weight="400" font-size="16" transform="translate(528.817 521)">FC</text><path d="M235.508 516 250.007 516.217 249.992 517.217 235.493 517ZM248.726 512.698 256.665 516.817 248.606 520.697Z"/><path d="M331.508 516 346.007 516.217 345.992 517.217 331.493 517ZM344.726 512.698 352.665 516.817 344.606 520.697Z"/><path d="M430.508 515 445.007 515.217 444.992 516.217 430.493 516ZM443.726 511.698 451.665 515.817 443.606 519.697Z"/><text font-family="Calibri,Calibri_MSFontService,sans-serif" font-weight="400" font-size="24" transform="translate(455.85 518)">…</text><path d="M477.508 516 492.007 516.217 491.992 517.217 477.493 517ZM490.726 512.698 498.665 516.817 490.606 520.697Z"/></g></svg>