<svg width="351" height="516" xmlns="http://www.w3.org/2000/svg" xmlns:xlink="http://www.w3.org/1999/xlink" overflow="hidden"><defs><clipPath id="clip0"><path d="M240 185 591 185 591 701 240 701Z" fill-rule="evenodd" clip-rule="evenodd"/></clipPath></defs><g clip-path="url(#clip0)" transform="translate(-240 -185)"><path d="M258 528 588.347 528" stroke="#FFFFFF" stroke-width="2" stroke-miterlimit="8" stroke-dasharray="8 6" fill="none" fill-rule="evenodd"/><rect x="305.5" y="186.5" width="238" height="62" stroke="#000000" stroke-miterlimit="8" fill="#FFFFFF"/><text font-family="Calibri,Calibri_MSFontService,sans-serif" font-weight="400" font-size="24" transform="translate(375.831 225)">Algorithm</text><rect x="305.5" y="257.5" width="238" height="61" stroke="#000000" stroke-miterlimit="8" fill="#FFFFFF"/><text font-family="Calibri,Calibri_MSFontService,sans-serif" font-weight="400" font-size="24" transform="translate(347.795 295)">DSL Framework</text><rect x="305.5" y="348.5" width="238" height="66" stroke="#000000" stroke-miterlimit="8" fill="#FFFFFF"/><text font-family="Calibri,Calibri_MSFontService,sans-serif" font-weight="400" font-size="24" transform="translate(340.131 374)">HW Independent <tspan x="52.1467" y="29">Passes</tspan></text><rect x="305.5" y="421.5" width="238" height="61" stroke="#000000" stroke-miterlimit="8" fill="#D9D9D9"/><text font-family="Calibri,Calibri_MSFontService,sans-serif" font-weight="400" font-size="24" transform="translate(357.263 459)">HW Backends</text><rect x="305.5" y="579.5" width="237" height="57" stroke="#000000" stroke-miterlimit="8" fill="#D9D9D9"/><text font-family="Calibri,Calibri_MSFontService,sans-serif" font-weight="400" font-size="24" transform="translate(330.735 615)">HW <tspan x="41.8333" y="0">μArch</tspan></text><rect x="452.5" y="587.5" width="83" height="41" stroke="#000000" stroke-miterlimit="8" fill="none"/><text font-family="Calibri,Calibri_MSFontService,sans-serif" font-weight="400" font-size="24" transform="translate(477.787 615)">ISA</text><rect x="304.5" y="643.5" width="238" height="57" stroke="#000000" stroke-miterlimit="8" fill="#FFFFFF"/><text font-family="Calibri,Calibri_MSFontService,sans-serif" font-weight="400" font-size="24" transform="translate(370.313 679)">RTL Design</text><path d="M292 333 543.551 333" stroke="#000000" stroke-width="2" stroke-miterlimit="8" stroke-dasharray="8 6" fill="none" fill-rule="evenodd"/><path d="M288 496 542.799 496" stroke="#000000" stroke-width="2" stroke-miterlimit="8" stroke-dasharray="8 6" fill="none" fill-rule="evenodd"/><path d="M284 358 284 471.701 281 471.701 281 358ZM278 359.5 282.5 350.5 287 359.5ZM287 470.201 282.5 479.201 278 470.201Z"/><text font-family="Calibri,Calibri_MSFontService,sans-serif" font-weight="400" font-size="24" transform="matrix(-1.83697e-16 -1 1 -1.83697e-16 269.932 516)">Compiler Framework</text><rect x="305.5" y="510.5" width="237" height="61" stroke="#000000" stroke-miterlimit="8" fill="#D9D9D9"/><text font-family="Calibri,Calibri_MSFontService,sans-serif" font-weight="400" font-size="24" transform="translate(335.954 534)">Low<tspan x="39.9066" y="0">-</tspan><tspan x="47.24" y="0">Level Kernels </tspan><tspan x="53.9133" y="29">Library</tspan></text></g></svg>