<svg width="344" height="516" xmlns="http://www.w3.org/2000/svg" xmlns:xlink="http://www.w3.org/1999/xlink" overflow="hidden"><defs><clipPath id="clip0"><path d="M692 185 1036 185 1036 701 692 701Z" fill-rule="evenodd" clip-rule="evenodd"/></clipPath></defs><g clip-path="url(#clip0)" transform="translate(-692 -185)"><path d="M693 528 1023.35 528" stroke="#FFFFFF" stroke-width="2" stroke-miterlimit="8" stroke-dasharray="8 6" fill="none" fill-rule="evenodd"/><rect x="737.5" y="186.5" width="238" height="62" stroke="#000000" stroke-miterlimit="8" fill="#FFFFFF"/><text font-family="Calibri,Calibri_MSFontService,sans-serif" font-weight="400" font-size="24" transform="translate(805.593 225)">ResNet<tspan x="69.2867" y="0">-</tspan><tspan x="76.62" y="0">50</tspan></text><rect x="738.5" y="257.5" width="236" height="61" stroke="#000000" stroke-miterlimit="8" fill="#FFFFFF"/><text font-family="Calibri,Calibri_MSFontService,sans-serif" font-weight="400" font-size="24" transform="translate(817.678 295)">PyTorch</text><rect x="737.5" y="421.5" width="238" height="61" stroke="#000000" stroke-miterlimit="8" fill="#D9D9D9"/><text font-family="Calibri,Calibri_MSFontService,sans-serif" font-weight="400" font-size="24" transform="translate(793.517 459)">VTA Backend</text><rect x="738.5" y="579.5" width="237" height="57" stroke="#000000" stroke-miterlimit="8" fill="#D9D9D9"/><text font-family="Calibri,Calibri_MSFontService,sans-serif" font-weight="400" font-size="24" transform="translate(796.751 615)">VTA</text><rect x="883.5" y="587.5" width="83" height="41" stroke="#000000" stroke-miterlimit="8" fill="none"/><text font-family="Calibri,Calibri_MSFontService,sans-serif" font-weight="400" font-size="24" transform="translate(909.608 615)">ISA</text><rect x="737.5" y="643.5" width="238" height="57" stroke="#000000" stroke-miterlimit="8" fill="#FFFFFF"/><text font-family="Calibri,Calibri_MSFontService,sans-serif" font-weight="400" font-size="24" transform="translate(802.877 679)">RTL Design</text><path d="M737 333 987.133 333" stroke="#000000" stroke-width="2" stroke-miterlimit="8" stroke-dasharray="8 6" fill="none" fill-rule="evenodd"/><path d="M737 496 986.515 496" stroke="#000000" stroke-width="2" stroke-miterlimit="8" stroke-dasharray="8 6" fill="none" fill-rule="evenodd"/><path d="M996 357 996 470.701 993 470.701 993 357ZM990 358.5 994.5 349.5 999 358.5ZM999 469.201 994.5 478.201 990 469.201Z"/><text font-family="Calibri,Calibri_MSFontService,sans-serif" font-weight="400" font-size="24" transform="matrix(6.12323e-17 1 -1 6.12323e-17 1006.24 392)">TVM</text><rect x="737.5" y="510.5" width="237" height="61" stroke="#000000" stroke-miterlimit="8" fill="#D9D9D9"/><text font-family="Calibri,Calibri_MSFontService,sans-serif" font-weight="400" font-size="37" transform="translate(872.805 553)">…</text><rect x="745.5" y="521.5" width="106" height="41" stroke="#000000" stroke-miterlimit="8" fill="none"/><text font-family="Consolas,Consolas_MSFontService,sans-serif" font-weight="400" font-size="21" transform="translate(762.934 549)">MatMul</text><rect x="923.5" y="521.5" width="43" height="41" stroke="#000000" stroke-miterlimit="8" fill="none"/><rect x="736.5" y="347.5" width="239" height="66" stroke="#000000" stroke-miterlimit="8" fill="#FFFFFF"/><text font-family="Calibri,Calibri_MSFontService,sans-serif" font-weight="400" font-size="24" transform="translate(771.712 373)">HW Independent <tspan x="52.1467" y="29">Passes</tspan></text></g></svg>