<svg width="1041" height="378" xmlns="http://www.w3.org/2000/svg" xmlns:xlink="http://www.w3.org/1999/xlink" overflow="hidden"><defs><clipPath id="clip0"><path d="M68 556 1109 556 1109 934 68 934Z" fill-rule="evenodd" clip-rule="evenodd"/></clipPath></defs><g clip-path="url(#clip0)" transform="translate(-68 -556)"><rect x="598.5" y="609.5" width="310" height="322" stroke="#000000" stroke-miterlimit="8" fill="#FFFFFF"/><text fill="#000084" font-family="Consolas,Consolas_MSFontService,sans-serif" font-weight="700" font-size="15" transform="translate(607.573 631)">def<tspan fill="#000000" font-weight="400" x="32" y="0">get_bdc</tspan><tspan fill="#000000" font-weight="400" x="88" y="0">(system):</tspan><tspan x="16" y="19">return</tspan><tspan fill="#000000" font-weight="400" x="72" y="19">node_</tspan><tspan fill="#000000" font-weight="400" x="112" y="19">cost</tspan><tspan fill="#000000" font-weight="400" x="144" y="19">(</tspan><tspan fill="#000000" font-weight="400" x="152" y="19">system.root</tspan><tspan fill="#000000" font-weight="400" x="240" y="19">)</tspan><tspan x="0" y="58">def</tspan><tspan fill="#000000" font-weight="400" x="32" y="58">node_cost</tspan><tspan fill="#000000" font-weight="400" x="104" y="58">(n):</tspan><tspan x="16" y="77">if</tspan><tspan fill="#000000" font-weight="400" x="40" y="77">n.is_leaf</tspan><tspan fill="#000000" font-weight="400" x="112" y="77">:</tspan><tspan fill="#000000" font-weight="400" x="32" y="96">cost = </tspan><tspan fill="#000000" font-weight="400" x="88" y="96">n.num_dims</tspan><tspan fill="#000000" font-weight="400" x="176" y="96">* </tspan><tspan fill="#000000" font-weight="400" x="192" y="96">n.stage_mask</tspan><tspan fill="#000000" font-weight="400" x="32" y="116">cost </tspan><tspan fill="#000000" font-weight="400" x="72" y="116">= </tspan><tspan fill="#000000" font-weight="400" x="88" y="116">n.scale</tspan><tspan fill="#000000" font-weight="400" x="144" y="116">(cost)</tspan><tspan x="16" y="135">else</tspan><tspan fill="#000000" font-weight="400" x="48" y="135">:</tspan><tspan fill="#000000" font-weight="400" x="32" y="154">ch_costs</tspan><tspan fill="#000000" font-weight="400" x="104" y="154">= array()</tspan><tspan x="32" y="174">for</tspan><tspan fill="#000000" font-weight="400" x="64" y="174">c </tspan>in<tspan fill="#000000" font-weight="400" x="104" y="174">n.children</tspan><tspan fill="#000000" font-weight="400" x="184" y="174">:</tspan><tspan fill="#000000" font-weight="400" x="48" y="193">ch_costs.append</tspan><tspan fill="#000000" font-weight="400" x="168" y="193">(</tspan><tspan fill="#000000" font-weight="400" x="176" y="193">node_cost</tspan><tspan fill="#000000" font-weight="400" x="248" y="193">(c))</tspan><tspan fill="#000000" font-weight="400" x="32" y="232">cost = </tspan><tspan fill="#000000" font-weight="400" x="88" y="232">n.combine</tspan><tspan fill="#000000" font-weight="400" x="160" y="232">(</tspan><tspan fill="#000000" font-weight="400" x="168" y="232">ch_costs</tspan><tspan fill="#000000" font-weight="400" x="232" y="232">)</tspan><tspan fill="#000000" font-weight="400" x="16" y="271">cost = </tspan><tspan fill="#000000" font-weight="400" x="72" y="271">n.weight</tspan><tspan fill="#000000" font-weight="400" x="144" y="271">* cost</tspan><tspan x="16" y="290">return</tspan><tspan fill="#000000" font-weight="400" x="72" y="290">cost</tspan><tspan fill="#000000" font-family="Calibri,Calibri_MSFontService,sans-serif" font-weight="400" font-size="16" x="-406.933" y="-54">Feature Tree</tspan><tspan fill="#000000" font-family="Calibri,Calibri_MSFontService,sans-serif" font-weight="400" font-size="16" x="-414.487" y="-35">Template (FTT)</tspan><tspan fill="#000000" font-family="Calibri,Calibri_MSFontService,sans-serif" font-weight="400" font-size="16" x="-194.883" y="-55">Feature Tree</tspan><tspan fill="#000000" font-family="Calibri,Calibri_MSFontService,sans-serif" font-weight="400" font-size="16" x="-165.716" y="-36">(FT)</tspan><tspan fill="#000000" font-family="Calibri,Calibri_MSFontService,sans-serif" font-weight="400" font-size="16" x="135.141" y="-54">Cost</tspan><tspan fill="#000000" font-family="Calibri,Calibri_MSFontService,sans-serif" font-weight="400" font-size="16" x="121.047" y="-35">Function</tspan><tspan fill="#000000" font-family="Calibri,Calibri_MSFontService,sans-serif" font-weight="400" font-size="16" x="392.503" y="-54">Backend Dev. </tspan><tspan fill="#000000" font-family="Calibri,Calibri_MSFontService,sans-serif" font-weight="400" font-size="16" x="401.056" y="-35">Cost (BDC)</tspan></text><rect x="69.5001" y="609.5" width="29" height="119" stroke="#000000" stroke-miterlimit="8" fill="#FFFFFF"/><text font-family="Calibri,Calibri_MSFontService,sans-serif" font-weight="400" font-size="16" transform="matrix(-1.83697e-16 -1 1 -1.83697e-16 89.1292 684)">Start</text><text font-family="Calibri,Calibri_MSFontService,sans-serif" font-weight="400" font-size="19" transform="translate(408.401 709)">…</text><path d="M446.5 626C446.5 620.201 451.201 615.5 457 615.5 462.799 615.5 467.5 620.201 467.5 626 467.5 631.799 462.799 636.5 457 636.5 451.201 636.5 446.5 631.799 446.5 626Z" stroke="#000000" stroke-miterlimit="8" fill="#AFABAB" fill-rule="evenodd"/><path d="M403.5 668.5C403.5 662.425 408.201 657.5 414 657.5 419.799 657.5 424.5 662.425 424.5 668.5 424.5 674.575 419.799 679.5 414 679.5 408.201 679.5 403.5 674.575 403.5 668.5Z" stroke="#000000" stroke-miterlimit="8" fill="#AFABAB" fill-rule="evenodd"/><path d="M438.5 668C438.5 662.201 443.201 657.5 449 657.5 454.799 657.5 459.5 662.201 459.5 668 459.5 673.799 454.799 678.5 449 678.5 443.201 678.5 438.5 673.799 438.5 668Z" stroke="#000000" stroke-miterlimit="8" fill="#AFABAB" fill-rule="evenodd"/><path d="M485.5 668C485.5 662.201 490.425 657.5 496.5 657.5 502.575 657.5 507.5 662.201 507.5 668 507.5 673.799 502.575 678.5 496.5 678.5 490.425 678.5 485.5 673.799 485.5 668Z" stroke="#000000" stroke-miterlimit="8" fill="#AFABAB" fill-rule="evenodd"/><text font-family="Calibri,Calibri_MSFontService,sans-serif" font-weight="400" font-size="19" transform="translate(466.09 668)">…</text><path d="M382.5 710C382.5 704.201 387.201 699.5 393 699.5 398.799 699.5 403.5 704.201 403.5 710 403.5 715.799 398.799 720.5 393 720.5 387.201 720.5 382.5 715.799 382.5 710Z" stroke="#000000" stroke-miterlimit="8" fill="#AFABAB" fill-rule="evenodd"/><path d="M427.5 710C427.5 704.201 432.201 699.5 438 699.5 443.799 699.5 448.5 704.201 448.5 710 448.5 715.799 443.799 720.5 438 720.5 432.201 720.5 427.5 715.799 427.5 710Z" stroke="#000000" stroke-miterlimit="8" fill="#AFABAB" fill-rule="evenodd"/><path d="M458.5 710C458.5 704.201 463.201 699.5 469 699.5 474.799 699.5 479.5 704.201 479.5 710 479.5 715.799 474.799 720.5 469 720.5 463.201 720.5 458.5 715.799 458.5 710Z" stroke="#000000" stroke-miterlimit="8" fill="#AFABAB" fill-rule="evenodd"/><path d="M502.5 710C502.5 704.201 507.425 699.5 513.5 699.5 519.575 699.5 524.5 704.201 524.5 710 524.5 715.799 519.575 720.5 513.5 720.5 507.425 720.5 502.5 715.799 502.5 710Z" stroke="#000000" stroke-miterlimit="8" fill="#AFABAB" fill-rule="evenodd"/><text font-family="Calibri,Calibri_MSFontService,sans-serif" font-weight="400" font-size="19" transform="translate(484.167 709)">…</text><path d="M0 0 27.7641 27.3776" stroke="#000000" stroke-miterlimit="8" fill="none" fill-rule="evenodd" transform="matrix(-1 -8.74228e-08 -8.74228e-08 1 449.264 633.5)"/><path d="M0 0 8.00462 20.7736" stroke="#000000" stroke-miterlimit="8" fill="none" fill-rule="evenodd" transform="matrix(-1 -8.74228e-08 -8.74228e-08 1 456.505 636.5)"/><path d="M464.5 633.5 496.42 657.398" stroke="#000000" stroke-miterlimit="8" fill="none" fill-rule="evenodd"/><path d="M503.5 675.5 512.968 698.838" stroke="#000000" stroke-miterlimit="8" fill="none" fill-rule="evenodd"/><path d="M0 0 19.8913 23.3383" stroke="#000000" stroke-miterlimit="8" fill="none" fill-rule="evenodd" transform="matrix(-1 -8.74228e-08 -8.74228e-08 1 489.391 675.5)"/><path d="M0 0 13.3465 22.9827" stroke="#000000" stroke-miterlimit="8" fill="none" fill-rule="evenodd" transform="matrix(-1 -8.74228e-08 -8.74228e-08 1 406.846 676.5)"/><path d="M421.5 676.5 437.513 699.483" stroke="#000000" stroke-miterlimit="8" fill="none" fill-rule="evenodd"/><rect x="377.5" y="609.5" width="154" height="119" stroke="#000000" stroke-miterlimit="8" fill="none"/><path d="M916.5 664 961.402 664 961.402 667 916.5 667ZM959.902 661 968.902 665.5 959.902 670Z"/><path d="M538.5 662 583.402 662 583.402 665 538.5 665ZM581.902 659 590.902 663.5 581.902 668Z"/><path d="M320.5 662 365.402 662 365.402 665 320.5 665ZM363.902 659 372.902 663.5 363.902 668Z"/><path d="M103.5 662 148.402 662 148.402 665 103.5 665ZM146.902 659 155.902 663.5 146.902 668Z"/><path d="M346.5 565.5 346.5 931.37" stroke="#000000" stroke-miterlimit="8" stroke-dasharray="4 3" fill="none" fill-rule="evenodd"/><path d="M565.5 565.5 565.5 931.371" stroke="#000000" stroke-miterlimit="8" stroke-dasharray="4 3" fill="none" fill-rule="evenodd"/><path d="M938.5 566.5 939.983 931.359" stroke="#000000" stroke-miterlimit="8" stroke-dasharray="4 3" fill="none" fill-rule="evenodd"/><path d="M976.5 682.5 989.342 752.172" stroke="#000000" stroke-miterlimit="8" stroke-dasharray="4 3" fill="none" fill-rule="evenodd"/><path d="M1016.5 679.5 1106.7 750.056" stroke="#000000" stroke-miterlimit="8" stroke-dasharray="4 3" fill="none" fill-rule="evenodd"/><rect x="988.5" y="750.5" width="119" height="87" stroke="#000000" stroke-miterlimit="8" fill="#FFFFFF"/><text font-family="Arial,Arial_MSFontService,sans-serif" font-weight="400" font-size="15" transform="translate(997.262 770)">•<tspan font-family="Consolas,Consolas_MSFontService,sans-serif" x="12" y="0">func</tspan><tspan font-family="Consolas,Consolas_MSFontService,sans-serif" x="43.9999" y="0">-</tspan><tspan font-family="Consolas,Consolas_MSFontService,sans-serif" x="51.9999" y="0">single</tspan><tspan x="0" y="19">•</tspan><tspan font-family="Consolas,Consolas_MSFontService,sans-serif" x="12" y="19">func</tspan><tspan font-family="Consolas,Consolas_MSFontService,sans-serif" x="43.9999" y="19">-</tspan><tspan font-family="Consolas,Consolas_MSFontService,sans-serif" x="51.9999" y="19">dist</tspan><tspan x="0" y="38">•</tspan><tspan font-family="Consolas,Consolas_MSFontService,sans-serif" x="12" y="38">opt</tspan><tspan font-family="Consolas,Consolas_MSFontService,sans-serif" x="35.9999" y="38">-</tspan><tspan font-family="Consolas,Consolas_MSFontService,sans-serif" x="43.9999" y="38">single</tspan><tspan x="0" y="58">•</tspan><tspan font-family="Consolas,Consolas_MSFontService,sans-serif" x="12" y="58">opt</tspan><tspan font-family="Consolas,Consolas_MSFontService,sans-serif" x="35.9999" y="58">-</tspan><tspan font-family="Consolas,Consolas_MSFontService,sans-serif" x="43.9999" y="58">dist</tspan></text><rect x="976.5" y="643.5" width="40" height="39" stroke="#000000" stroke-miterlimit="8" fill="#FFFFFF"/><text font-family="Cambria Math,Cambria Math_MSFontService,sans-serif" font-weight="400" font-size="24" transform="translate(982.032 671)"> <tspan x="5.33331" y="0">∑</tspan></text><path d="M128.5 565.5 128.5 931.371" stroke="#000000" stroke-miterlimit="8" stroke-dasharray="4 3" fill="none" fill-rule="evenodd"/><path d="M136.5 581.5C136.5 573.216 143.216 566.5 151.5 566.5 159.784 566.5 166.5 573.216 166.5 581.5 166.5 589.784 159.784 596.5 151.5 596.5 143.216 596.5 136.5 589.784 136.5 581.5Z" stroke="#000000" stroke-miterlimit="8" fill="#FFFFFF" fill-rule="evenodd"/><text font-family="Calibri,Calibri_MSFontService,sans-serif" font-weight="400" font-size="16" transform="translate(146.687 586)">1</text><path d="M354.5 581.5C354.5 573.216 361.216 566.5 369.5 566.5 377.784 566.5 384.5 573.216 384.5 581.5 384.5 589.784 377.784 596.5 369.5 596.5 361.216 596.5 354.5 589.784 354.5 581.5Z" stroke="#000000" stroke-miterlimit="8" fill="#FFFFFF" fill-rule="evenodd"/><text font-family="Calibri,Calibri_MSFontService,sans-serif" font-weight="400" font-size="16" transform="translate(364.82 586)">2</text><path d="M573.5 581.5C573.5 573.216 580.216 566.5 588.5 566.5 596.784 566.5 603.5 573.216 603.5 581.5 603.5 589.784 596.784 596.5 588.5 596.5 580.216 596.5 573.5 589.784 573.5 581.5Z" stroke="#000000" stroke-miterlimit="8" fill="#FFFFFF" fill-rule="evenodd"/><text font-family="Calibri,Calibri_MSFontService,sans-serif" font-weight="400" font-size="16" transform="translate(584.239 586)">3</text><path d="M946.5 581.5C946.5 573.216 953.216 566.5 961.5 566.5 969.784 566.5 976.5 573.216 976.5 581.5 976.5 589.784 969.784 596.5 961.5 596.5 953.216 596.5 946.5 589.784 946.5 581.5Z" stroke="#000000" stroke-miterlimit="8" fill="#FFFFFF" fill-rule="evenodd"/><text font-family="Calibri,Calibri_MSFontService,sans-serif" font-weight="400" font-size="16" transform="translate(957.005 586)">4<tspan font-size="19" x="-763.768" y="124">…</tspan></text><path d="M231.5 626.5C231.5 620.425 236.201 615.5 242 615.5 247.799 615.5 252.5 620.425 252.5 626.5 252.5 632.575 247.799 637.5 242 637.5 236.201 637.5 231.5 632.575 231.5 626.5Z" stroke="#000000" stroke-miterlimit="8" fill="#FFFFFF" fill-rule="evenodd"/><path d="M188.5 669C188.5 663.201 193.201 658.5 199 658.5 204.799 658.5 209.5 663.201 209.5 669 209.5 674.799 204.799 679.5 199 679.5 193.201 679.5 188.5 674.799 188.5 669Z" stroke="#000000" stroke-miterlimit="8" fill="#FFFFFF" fill-rule="evenodd"/><path d="M223.5 668.5C223.5 662.425 228.201 657.5 234 657.5 239.799 657.5 244.5 662.425 244.5 668.5 244.5 674.575 239.799 679.5 234 679.5 228.201 679.5 223.5 674.575 223.5 668.5Z" stroke="#000000" stroke-miterlimit="8" fill="#FFFFFF" fill-rule="evenodd"/><path d="M270.5 668.5C270.5 662.425 275.201 657.5 281 657.5 286.799 657.5 291.5 662.425 291.5 668.5 291.5 674.575 286.799 679.5 281 679.5 275.201 679.5 270.5 674.575 270.5 668.5Z" stroke="#000000" stroke-miterlimit="8" fill="#FFFFFF" fill-rule="evenodd"/><text font-family="Calibri,Calibri_MSFontService,sans-serif" font-weight="400" font-size="19" transform="translate(250.927 668)">…</text><path d="M167.5 710.5C167.5 704.425 172.201 699.5 178 699.5 183.799 699.5 188.5 704.425 188.5 710.5 188.5 716.575 183.799 721.5 178 721.5 172.201 721.5 167.5 716.575 167.5 710.5Z" stroke="#000000" stroke-miterlimit="8" fill="#FFFFFF" fill-rule="evenodd"/><path d="M211.5 710.5C211.5 704.425 216.425 699.5 222.5 699.5 228.575 699.5 233.5 704.425 233.5 710.5 233.5 716.575 228.575 721.5 222.5 721.5 216.425 721.5 211.5 716.575 211.5 710.5Z" stroke="#000000" stroke-miterlimit="8" fill="#FFFFFF" fill-rule="evenodd"/><path d="M243.5 710.5C243.5 704.425 248.201 699.5 254 699.5 259.799 699.5 264.5 704.425 264.5 710.5 264.5 716.575 259.799 721.5 254 721.5 248.201 721.5 243.5 716.575 243.5 710.5Z" stroke="#000000" stroke-miterlimit="8" fill="#FFFFFF" fill-rule="evenodd"/><path d="M287.5 710.5C287.5 704.425 292.201 699.5 298 699.5 303.799 699.5 308.5 704.425 308.5 710.5 308.5 716.575 303.799 721.5 298 721.5 292.201 721.5 287.5 716.575 287.5 710.5Z" stroke="#000000" stroke-miterlimit="8" fill="#FFFFFF" fill-rule="evenodd"/><text font-family="Calibri,Calibri_MSFontService,sans-serif" font-weight="400" font-size="19" transform="translate(269.004 710)">…</text><path d="M0 0 27.7641 27.5861" stroke="#000000" stroke-miterlimit="8" fill="none" fill-rule="evenodd" transform="matrix(-1 -8.74228e-08 -8.74228e-08 1 234.264 633.5)"/><path d="M0 0 8.00462 20.9319" stroke="#000000" stroke-miterlimit="8" fill="none" fill-rule="evenodd" transform="matrix(-1 -8.74228e-08 -8.74228e-08 1 241.505 637.5)"/><path d="M249.5 633.5 281.42 657.58" stroke="#000000" stroke-miterlimit="8" fill="none" fill-rule="evenodd"/><path d="M288.5 676.5 297.968 700.016" stroke="#000000" stroke-miterlimit="8" fill="none" fill-rule="evenodd"/><path d="M0 0 19.8913 23.516" stroke="#000000" stroke-miterlimit="8" fill="none" fill-rule="evenodd" transform="matrix(-1 -8.74228e-08 -8.74228e-08 1 273.391 676.5)"/><path d="M0 0 13.3465 23.1577" stroke="#000000" stroke-miterlimit="8" fill="none" fill-rule="evenodd" transform="matrix(-1 -8.74228e-08 -8.74228e-08 1 191.847 676.5)"/><path d="M206.5 676.5 222.513 699.658" stroke="#000000" stroke-miterlimit="8" fill="none" fill-rule="evenodd"/><rect x="161.5" y="609.5" width="154" height="120" stroke="#000000" stroke-miterlimit="8" fill="none"/><path d="M0 0 65.4856 45.4837" stroke="#000000" stroke-miterlimit="8" stroke-dasharray="4 3" fill="none" fill-rule="evenodd" transform="matrix(-1 -8.74228e-08 -8.74228e-08 1 211.986 710.5)"/><path d="M233.5 710.5 273.614 755.984" stroke="#000000" stroke-miterlimit="8" stroke-dasharray="4 3" fill="none" fill-rule="evenodd"/><rect x="144.5" y="756.5" width="131" height="165" stroke="#000000" stroke-miterlimit="8" fill="#FFFFFF"/><text font-family="Arial,Arial_MSFontService,sans-serif" font-weight="400" font-size="15" transform="translate(153.114 775)">•<tspan font-family="Consolas,Consolas_MSFontService,sans-serif" x="12" y="0">name</tspan><tspan x="0" y="19">•</tspan><tspan font-family="Consolas,Consolas_MSFontService,sans-serif" x="12" y="19">num_dims</tspan><tspan x="0" y="38">•</tspan><tspan font-family="Consolas,Consolas_MSFontService,sans-serif" x="12" y="38">weight</tspan><tspan x="0" y="58">•</tspan><tspan font-family="Consolas,Consolas_MSFontService,sans-serif" x="12" y="58">Leaf Node:</tspan><tspan font-family="Calibri,Calibri_MSFontService,sans-serif" x="12" y="77">−</tspan><tspan font-family="Consolas,Consolas_MSFontService,sans-serif" x="29.8667" y="77">stage_mask</tspan><tspan font-family="Calibri,Calibri_MSFontService,sans-serif" x="12" y="96">−</tspan><tspan font-family="Consolas,Consolas_MSFontService,sans-serif" x="29.8667" y="96">scale</tspan><tspan x="0" y="116">•</tspan><tspan font-family="Consolas,Consolas_MSFontService,sans-serif" x="12" y="116">Parent Node:</tspan><tspan font-family="Calibri,Calibri_MSFontService,sans-serif" x="17.8667" y="135">−</tspan><tspan font-family="Consolas,Consolas_MSFontService,sans-serif" x="29.8667" y="135">combine</tspan></text></g></svg>