<svg width="417" height="309" xmlns="http://www.w3.org/2000/svg" xmlns:xlink="http://www.w3.org/1999/xlink" overflow="hidden"><defs><clipPath id="clip0"><path d="M771 643 1188 643 1188 952 771 952Z" fill-rule="evenodd" clip-rule="evenodd"/></clipPath></defs><g clip-path="url(#clip0)" transform="translate(-771 -643)"><path d="M772.5 770.5 1187.45 770.5" stroke="#FFFFFF" stroke-miterlimit="8" fill="none" fill-rule="evenodd"/><path d="M0 0 0.000104987 204.957" stroke="#A6A6A6" stroke-miterlimit="8" stroke-dasharray="1 1" fill="none" fill-rule="evenodd" transform="matrix(1 0 0 -1 1056.5 877.457)"/><path d="M947.165 875.507 946.5 672.5" stroke="#A6A6A6" stroke-miterlimit="8" stroke-dasharray="1 1" fill="none" fill-rule="evenodd"/><path d="M0 0 0.000104987 202.213" stroke="#A6A6A6" stroke-miterlimit="8" stroke-dasharray="1 1" fill="none" fill-rule="evenodd" transform="matrix(1 0 0 -1 868.5 874.713)"/><text font-family="Calibri,Calibri_MSFontService,sans-serif" font-weight="400" font-size="16" transform="matrix(-1.83697e-16 -1 1 -1.83697e-16 801.559 860)">Backend <tspan x="58" y="1.06544e-14">Development </tspan><tspan x="150" y="2.75546e-14">Cost</tspan></text><text font-family="Calibri,Calibri_MSFontService,sans-serif" font-weight="400" font-size="16" transform="translate(905.555 938)">Hardware Utilization<tspan x="136.609" y="-43">Max</tspan></text><path d="M843.5 672.5 1145 672.5" stroke="#A6A6A6" stroke-miterlimit="8" stroke-dasharray="1 1" fill="none" fill-rule="evenodd"/><text font-family="Calibri,Calibri_MSFontService,sans-serif" font-weight="400" font-size="16" transform="translate(817.661 829)">c1<tspan x="0.296387" y="-52">c</tspan><tspan x="7.12976" y="-52">2</tspan><tspan x="0.719482" y="-119">c</tspan><tspan x="7.55286" y="-119">3</tspan></text><path d="M0.00860891-1.49998 228.06-0.191104 228.043 2.80885-0.00860891 1.49998ZM226.577-3.19966 235.551 1.35192 226.526 5.80019Z" transform="matrix(1 0 0 -1 845.5 875.852)"/><path d="M843.5 824.5 1145.22 824.5" stroke="#A6A6A6" stroke-miterlimit="8" stroke-dasharray="1 1" fill="none" fill-rule="evenodd"/><text font-family="Calibri,Calibri_MSFontService,sans-serif" font-weight="400" font-size="16" transform="translate(849.307 896)">Single <tspan x="-6.24664" y="15">Node v1</tspan></text><path d="M843.5 772.5 1145 774.329" stroke="#A6A6A6" stroke-miterlimit="8" stroke-dasharray="1 1" fill="none" fill-rule="evenodd"/><path d="M844 877.339 844 661 847 661 847 877.339ZM841 662.5 845.5 653.5 850 662.5Z"/><text font-family="Calibri,Calibri_MSFontService,sans-serif" font-weight="400" font-size="16" transform="translate(910.907 895)">Distributed <tspan x="10.2401" y="15">Impl</tspan><tspan x="39.0734" y="15">. v1</tspan></text><path d="M868.5 772.5 947.008 772.722" stroke="#000000" stroke-miterlimit="8" fill="none" fill-rule="evenodd"/><path d="M868.5 825.145 868.5 772.5" stroke="#000000" stroke-miterlimit="8" fill="none" fill-rule="evenodd"/><path d="M845.5 824.5 868.794 824.5" stroke="#000000" stroke-miterlimit="8" fill="none" fill-rule="evenodd"/><text font-family="Consolas,Consolas_MSFontService,sans-serif" font-weight="400" font-size="15" transform="translate(1089.34 845)">func<tspan x="-8" y="17">single</tspan><tspan x="0.00012207" y="-50">func</tspan><tspan x="0.00012207" y="-33">dist</tspan><tspan x="-23.3729" y="-134">opt</tspan>-single<tspan x="12.6271" y="-117">+</tspan><tspan x="-15.3729" y="-99">opt</tspan>-dist</text><path d="M840.5 824.5 850.853 824.5" stroke="#000000" stroke-miterlimit="8" fill="none" fill-rule="evenodd"/><path d="M840.5 772.5 850.853 772.5" stroke="#000000" stroke-miterlimit="8" fill="none" fill-rule="evenodd"/><path d="M839.5 705.5 849.853 705.5" stroke="#000000" stroke-miterlimit="8" fill="none" fill-rule="evenodd"/><path d="M868.5 870.5 868.5 880.721" stroke="#000000" stroke-miterlimit="8" fill="none" fill-rule="evenodd"/><path d="M947.5 868.5 947.5 878.721" stroke="#000000" stroke-miterlimit="8" fill="none" fill-rule="evenodd"/><path d="M1056.5 868.5 1056.5 878.721" stroke="#000000" stroke-miterlimit="8" fill="none" fill-rule="evenodd"/><text font-family="Calibri,Calibri_MSFontService,sans-serif" font-weight="400" font-size="16" transform="matrix(-1.83697e-16 -1 1 -1.83697e-16 1172.48 867)">Functionality<tspan x="104" y="-0.989502">Optimization</tspan></text><path d="M1151.5 673.5C1154.26 673.5 1156.5 673.687 1156.5 673.917L1156.5 771.083C1156.5 771.313 1154.26 771.5 1151.5 771.5" stroke="#000000" stroke-miterlimit="8" fill="none" fill-rule="evenodd"/><path d="M1151.5 776.5C1154.26 776.5 1156.5 776.687 1156.5 776.917L1156.5 870.083C1156.5 870.314 1154.26 870.5 1151.5 870.5" stroke="#000000" stroke-miterlimit="8" fill="none" fill-rule="evenodd"/><rect x="997.5" y="857.5" width="18" height="34" stroke="#FFFFFF" stroke-miterlimit="8" fill="#FFFFFF"/><path d="M997.5 876.9C997.86 867.201 998.175 857.687 1000.64 861.163 1001.64 863.877 1002.83 888.859 1003.78 889.159 1004.4 889.132 1006.95 860.37 1007.41 860.5 1009.47 860.52 1008.81 887.825 1010.22 889.159 1011.98 892.423 1015.68 874.877 1015.5 873.421" fill="#FFFFFF" fill-rule="evenodd"/><path d="M997.5 876.9C997.662 866.69 998.422 858.203 1000.64 861.163 1001.55 863.588 1002.79 888.795 1003.78 889.159 1004.58 889.254 1006.7 860.523 1007.41 860.5 1009.3 860.489 1008.95 887.247 1010.22 889.159 1011.64 892.37 1015.21 875.508 1015.5 873.421" stroke="#000000" stroke-width="3" stroke-miterlimit="8" fill="none" fill-rule="evenodd"/><path d="M947.5 772.5C1008.61 768.177 1013.4 763.045 1026.9 752.376 1040.41 741.708 1042.54 725.814 1047.47 712.501 1052.41 699.188 1053.43 685.97 1056.5 672.5" stroke="#000000" stroke-miterlimit="8" fill="none" fill-rule="evenodd"/></g></svg>