<svg width="433" height="117" xmlns="http://www.w3.org/2000/svg" xmlns:xlink="http://www.w3.org/1999/xlink" overflow="hidden"><defs><clipPath id="clip0"><path d="M158 663 591 663 591 780 158 780Z" fill-rule="evenodd" clip-rule="evenodd"/></clipPath></defs><g clip-path="url(#clip0)" transform="translate(-158 -663)"><rect x="160.5" y="664.5" width="96" height="49" stroke="#000000" stroke-miterlimit="8" fill="#FFFFFF"/><text font-family="Calibri,Calibri_MSFontService,sans-serif" font-weight="400" font-size="16" transform="translate(176.242 684)">Hardware <tspan x="3.82666" y="19">Features</tspan></text><rect x="159.5" y="727.5" width="96" height="48" stroke="#000000" stroke-miterlimit="8" fill="#FFFFFF"/><text font-family="Calibri,Calibri_MSFontService,sans-serif" font-weight="400" font-size="16" transform="translate(182.334 747)">Feature <tspan x="-1.51334" y="19">Weights</tspan></text><rect x="319.5" y="695.5" width="96" height="49" stroke="#000000" stroke-miterlimit="8" stroke-dasharray="4 3" fill="#FFFFFF"/><text font-family="Calibri,Calibri_MSFontService,sans-serif" font-weight="400" font-size="16" transform="translate(352.541 715)">Cost<tspan x="-14.0867" y="19">Functio</tspan><tspan x="34.2467" y="19">n</tspan></text><path d="M478.5 703.5C478.5 699.082 482.082 695.5 486.5 695.5L582.5 695.5C586.918 695.5 590.5 699.082 590.5 703.5L590.5 735.5C590.5 739.918 586.918 743.5 582.5 743.5L486.5 743.5C482.082 743.5 478.5 739.918 478.5 735.5Z" stroke="#000000" stroke-miterlimit="8" fill="#FFFFFF" fill-rule="evenodd"/><text font-family="Calibri,Calibri_MSFontService,sans-serif" font-weight="400" font-size="16" transform="translate(489.729 715)">Backend Dev. <tspan x="9.57999" y="19">Cost (BDC)</tspan></text><path d="M264.439 688.102 307.938 709.368 307.059 711.164 263.561 689.898ZM308.058 706.087 313.488 713.194 304.544 713.274Z"/><path d="M0.434393-0.900724 43.9175 20.0699 43.0487 21.8713-0.434393 0.900724ZM44.0197 16.7885 49.4879 23.8666 40.5445 23.9943Z" transform="matrix(1 0 0 -1 264 750.867)"/><path d="M420 719 462.821 719 462.821 721 420 721ZM461.488 716 469.488 720 461.488 724Z"/></g></svg>